<svg width="25" height="24" viewBox="0 0 25 24" fill="none" xmlns="http://www.w3.org/2000/svg">
<path d="M11.55 12.0139H12.291C12.329 11.7999 12.261 11.6169 12.024 11.6169C11.787 11.6169 11.619 11.7389 11.55 12.0139ZM7.37299 12.4109L7.33599 12.4049C7.22599 12.3849 7.03199 12.3489 6.86199 12.4649C6.67099 12.5949 6.61699 12.8229 6.81599 12.8999C7.00699 12.9729 7.28899 12.8469 7.32799 12.6479L7.37299 12.4109ZM20.973 12.3419C21.035 12.1439 21.001 11.8959 20.935 11.8079C20.752 11.5639 20.331 11.7569 20.202 12.2359C20.118 12.5489 20.302 12.7859 20.508 12.7859C20.729 12.7859 20.866 12.6099 20.973 12.3419ZM17.453 12.4109L17.416 12.4049C17.306 12.3849 17.111 12.3489 16.942 12.4649C16.751 12.5949 16.697 12.8229 16.896 12.8999C17.087 12.9729 17.369 12.8469 17.407 12.6479L17.453 12.4109Z" fill="#757575"/>
<path d="M16.581 6.08009C18.1511 6.08009 19.6569 6.70381 20.7671 7.81402C21.8773 8.92424 22.501 10.43 22.501 12.0001C22.501 13.5702 21.8773 15.076 20.7671 16.1862C19.6569 17.2964 18.1511 17.9201 16.581 17.9201C15.2215 17.9231 13.9032 17.4532 12.852 16.5911C13.6416 15.8328 14.2235 14.8845 14.542 13.8371H14.05C13.7437 14.7697 13.2096 15.6111 12.496 16.2851C11.7869 15.6107 11.2566 14.7705 10.953 13.8401H10.461C10.7755 14.8831 11.351 15.8287 12.133 16.5871C11.086 17.4455 9.77491 17.9164 8.42101 17.9201C6.85093 17.9201 5.34515 17.2964 4.23494 16.1862C3.12472 15.076 2.50101 13.5702 2.50101 12.0001C2.50101 10.43 3.12472 8.92424 4.23494 7.81402C5.34515 6.70381 6.85093 6.08009 8.42101 6.08009C9.83101 6.08009 11.116 6.59009 12.133 7.41309C11.351 8.17153 10.7755 9.11705 10.461 10.1601H10.953C11.2566 9.22974 11.7869 8.38951 12.496 7.71509C13.2096 8.38912 13.7437 9.23053 14.05 10.1631H14.542C14.2235 9.11566 13.6416 8.16744 12.852 7.40909C13.9035 6.54672 15.2221 6.07688 16.582 6.08009M18.56 11.1961L18.151 13.3861H18.753L18.938 12.3841C19.106 11.7621 19.365 11.7641 19.517 11.7671H19.54L19.702 11.1971C19.401 11.1971 19.223 11.3041 19.131 11.4121L19.077 11.1961H18.56ZM10.826 10.6401H10.23L9.81801 12.7171C9.70301 13.3121 10.154 13.3971 10.291 13.3971C10.4458 13.4021 10.5989 13.3648 10.734 13.2891L10.772 12.8471C10.429 12.9001 10.413 12.7471 10.444 12.5791L10.612 11.6931H10.917L11.024 11.2201H10.704L10.826 10.6401ZM11.994 11.1901C11.061 11.1901 10.918 12.0871 10.89 12.2671L10.887 12.2811C10.864 12.4191 10.849 13.3891 11.88 13.3891C12.132 13.3961 12.498 13.3661 12.644 13.2891L12.735 12.8391C12.5129 12.8756 12.2881 12.8934 12.063 12.8921H12.043C11.805 12.8921 11.447 12.8931 11.513 12.4121H12.811C12.881 12.0601 13.041 11.1901 11.994 11.1901ZM9.80301 11.2651C9.55601 11.1711 9.35601 11.1771 9.25301 11.1801H9.21001C9.10901 11.1801 8.41301 11.1801 8.30501 11.7001C8.22101 12.1051 8.36901 12.2721 8.51101 12.3341C8.66101 12.3991 8.76801 12.4601 8.85901 12.5121C8.90567 12.5401 8.95034 12.5648 8.99301 12.5861C9.14301 12.6611 9.11601 12.9141 8.91601 12.9141L8.84401 12.9171C8.69001 12.9261 8.37601 12.9431 8.13001 12.8611L8.04601 13.3111C8.32101 13.3881 8.54201 13.3881 8.74801 13.3881H8.77101C8.95601 13.3901 9.60801 13.3961 9.70201 12.7691C9.75101 12.4491 9.61101 12.3031 9.49601 12.2351C9.35954 12.146 9.21684 12.0668 9.06901 11.9981C8.94701 11.9441 8.85501 11.7381 9.07601 11.6781C9.21401 11.6621 9.49601 11.6621 9.66401 11.7081L9.80301 11.2651ZM6.29801 10.7451H5.32001L4.59501 12.3491L4.48001 10.7451H3.52601L3.01401 13.3881H3.61001L3.97601 11.4781L4.13601 13.3881H4.70201L5.53401 11.5241L5.18301 13.3881H5.80001L6.29801 10.7451ZM6.36601 11.7311L6.51001 11.7131C6.69001 11.6901 6.95101 11.6561 7.10701 11.6621L7.16701 11.6631C7.35401 11.6671 7.53601 11.6711 7.47401 11.9671C7.45334 11.9684 7.42001 11.9684 7.37401 11.9671C7.06101 11.9571 6.23001 11.9321 6.08401 12.7311C6.01501 13.1811 6.40401 13.4111 6.71001 13.3951C7.01501 13.3801 7.10001 13.3421 7.20601 13.2651L7.28301 13.3881H7.84001L8.07701 12.1961C8.13801 11.8991 8.23701 11.1811 7.23701 11.1811L7.14101 11.1841C6.97901 11.1881 6.78101 11.1941 6.45801 11.2571L6.36601 11.7311ZM15.652 11.2501C15.851 11.2501 15.957 11.2651 16.11 11.3561L16.5 10.9671C16.347 10.7991 16.171 10.6341 15.683 10.6161C15.27 10.6001 14.563 10.9011 14.339 11.7231C14.033 12.8381 14.705 13.3881 15.324 13.3881C15.652 13.3881 15.851 13.3421 16.049 13.2501L15.873 12.7161C15.263 12.9221 14.827 12.6091 14.927 11.9751C15.01 11.4391 15.453 11.2491 15.652 11.2491M21.104 11.3681C21.024 11.2841 20.932 11.1881 20.722 11.1881H20.668C20.34 11.1841 19.867 11.1791 19.592 12.1191C19.398 12.7821 19.791 13.3871 20.218 13.3871C20.417 13.3791 20.615 13.2951 20.738 13.2111L20.814 13.3871H21.455L21.975 10.6071H21.348L21.188 11.4471C21.1585 11.4221 21.1304 11.3954 21.104 11.3671M16.446 11.7291L16.59 11.7111C16.77 11.6881 17.03 11.6541 17.187 11.6601L17.247 11.6611C17.434 11.6651 17.616 11.6691 17.553 11.9651C17.533 11.9664 17.4997 11.9664 17.453 11.9651C17.141 11.9551 16.31 11.9301 16.163 12.7291C16.095 13.1791 16.484 13.4091 16.79 13.3931C17.095 13.3781 17.179 13.3401 17.286 13.2631L17.363 13.3861H17.92L18.157 12.1941C18.217 11.8971 18.317 11.1791 17.317 11.1791L17.221 11.1821C17.059 11.1861 16.861 11.1921 16.538 11.2551L16.446 11.7291ZM13.233 11.2171L12.828 13.3861H13.424L13.607 12.3931C13.772 11.7831 14.033 11.7871 14.183 11.7891H14.21L14.363 11.2171C14.066 11.2171 13.89 11.3241 13.798 11.4311L13.745 11.2171H13.233Z" fill="#757575"/>
</svg>
