<svg width="25" height="24" viewBox="0 0 25 24" fill="none" xmlns="http://www.w3.org/2000/svg">
<g clip-path="url(#clip0_60_47)">
<path d="M9.612 8.26202L6.47 15.758H4.42L2.874 9.77502C2.78 9.40702 2.699 9.27202 2.413 9.11702C1.947 8.86402 1.177 8.62702 0.5 8.47902L0.546 8.26202H3.846C4.06165 8.26181 4.27027 8.33869 4.43421 8.47879C4.59815 8.61889 4.7066 8.81298 4.74 9.02602L5.557 13.364L7.575 8.26202H9.612ZM17.645 13.311C17.653 11.332 14.909 11.223 14.928 10.339C14.934 10.07 15.19 9.78402 15.75 9.71102C16.4063 9.64869 17.0672 9.76478 17.663 10.047L18.003 8.45702C17.423 8.23882 16.8087 8.12605 16.189 8.12402C14.272 8.12402 12.923 9.14402 12.911 10.603C12.899 11.682 13.874 12.283 14.609 12.643C15.365 13.01 15.619 13.246 15.615 13.574C15.61 14.078 15.013 14.299 14.455 14.308C13.48 14.323 12.915 14.045 12.463 13.835L12.112 15.477C12.565 15.685 13.401 15.867 14.268 15.875C16.305 15.875 17.638 14.869 17.645 13.311ZM22.706 15.758H24.5L22.935 8.26202H21.279C21.102 8.25997 20.9284 8.31137 20.7811 8.40949C20.6337 8.50761 20.5194 8.6479 20.453 8.81202L17.544 15.758H19.58L19.985 14.638H22.473L22.706 15.758ZM20.543 13.102L21.563 10.287L22.151 13.102H20.543ZM12.383 8.26202L10.78 15.758H8.84L10.445 8.26202H12.383Z" fill="#757575"/>
</g>
<defs>
<clipPath id="clip0_60_47">
<rect width="24" height="24" fill="white" transform="translate(0.5)"/>
</clipPath>
</defs>
</svg>
