<svg width="25" height="10" viewBox="0 0 25 10" fill="none" xmlns="http://www.w3.org/2000/svg">
<g clip-path="url(#clip0_60_52)">
<path d="M4.24201 2.48018C4.51862 2.39034 4.80833 2.34477 5.0999 2.34523C6.40846 2.34523 7.50099 3.25117 7.75124 4.45534L9.60624 4.08652C9.1805 2.0401 7.32508 0.500002 5.0999 0.500002C4.60434 0.499594 4.11198 0.57735 3.64191 0.730255L4.24201 2.48018Z" fill="#757575"/>
<path d="M2.05311 8.33983L3.30754 6.95748C2.74761 6.47395 2.39429 5.76829 2.39429 4.98209C2.39429 4.19649 2.7471 3.49115 3.3067 3.00822L2.05218 1.62573C1.1012 2.44688 0.501144 3.64635 0.501144 4.98209C0.501144 6.31866 1.10143 7.5185 2.05311 8.33983Z" fill="#757575"/>
<path d="M7.75077 5.51123C7.49944 6.71481 6.40808 7.61901 5.09989 7.61901C4.79968 7.61901 4.51062 7.57182 4.2412 7.48356L3.64026 9.23422C4.09862 9.38333 4.58941 9.4641 5.09989 9.4641C7.32292 9.4641 9.17815 7.92657 9.60548 5.88201L7.75077 5.51123Z" fill="#757575"/>
<path d="M11.2284 7.01581C11.1676 6.91987 11.0849 6.76637 11.0353 6.65344C10.7415 5.98872 10.7275 5.30083 10.9755 4.6405C11.2483 3.9163 11.7693 3.36186 12.4425 3.07957C13.2889 2.72455 14.225 2.79454 15.0361 3.26368C15.5514 3.55182 15.9168 3.9967 16.1941 4.6257L16.2199 4.68687L16.2679 4.80839C16.2756 4.82804 16.2832 4.84701 16.2908 4.86532L11.2284 7.01581ZM12.9188 4.14664C12.3178 4.39841 12.0079 4.94796 12.0716 5.59231L14.6177 4.52428C14.1798 4.0227 13.61 3.85649 12.9188 4.14664ZM15.9192 7.1118L14.9351 6.47047L14.9337 6.47189L14.881 6.43726C14.7291 6.67756 14.492 6.87218 14.1929 6.99859C13.6238 7.23981 13.0964 7.17781 12.7177 6.85404L12.6828 6.90567C12.6825 6.90507 12.6824 6.90462 12.6817 6.90462L12.0358 7.84651C12.1965 7.95532 12.3686 8.04721 12.5492 8.12062C13.2627 8.40949 13.9927 8.3961 14.7119 8.09125C15.2322 7.8715 15.6403 7.53644 15.9192 7.11175M18.0603 1.69238V6.92883L18.8955 7.25877L18.4209 8.33817L17.4989 7.96397C17.2919 7.87666 17.1511 7.74294 17.0444 7.59209C16.9425 7.43831 16.8662 7.22725 16.8662 6.94308V1.69243L18.0603 1.69238ZM20.2241 5.59482C20.2246 5.14893 20.4266 4.74905 20.7462 4.47727L19.8893 3.54593C19.3081 4.04664 18.942 4.77833 18.9413 5.59354C18.9404 6.40902 19.3059 7.14145 19.8865 7.64348L20.7425 6.71123C20.4244 6.4384 20.2237 6.0397 20.2241 5.59482ZM21.7467 7.0811C21.5779 7.08064 21.4154 7.05346 21.2639 7.0043L20.8546 8.19029C21.1417 8.28409 21.4425 8.33201 21.7453 8.33219C23.1022 8.33347 24.2352 7.39509 24.4977 6.14766L23.2398 5.8973C23.0968 6.57344 22.4825 7.08155 21.7467 7.0811ZM21.7504 2.86028C21.448 2.85973 21.1475 2.90687 20.8606 2.9999L21.2662 4.18698C21.422 4.13671 21.5851 4.11107 21.7492 4.11105C22.4868 4.11174 23.1014 4.62286 23.2411 5.30093L24.4992 5.05226C24.2402 3.803 23.1083 2.86115 21.7504 2.86033" fill="#757575"/>
</g>
<defs>
<clipPath id="clip0_60_52">
<rect width="24" height="9" fill="white" transform="translate(0.5 0.5)"/>
</clipPath>
</defs>
</svg>
