<svg width="34" height="24" viewBox="0 0 34 24" fill="none" xmlns="http://www.w3.org/2000/svg">
<g clip-path="url(#clip0_60_57)">
<path fill-rule="evenodd" clip-rule="evenodd" d="M7.44329 7.41067H5.39193C3.06145 7.41067 1.12443 9.15125 1.00504 11.6961C1.00168 11.7795 1 11.8635 1 11.948C1 12.0244 1.00168 12.1009 1.00504 12.1773C1.12443 14.5259 3.06145 16.4193 5.39361 16.4089H7.44497C9.82421 16.4193 12 14.4025 12 11.948C12 9.26417 9.82421 7.41067 7.44329 7.41067ZM5.40538 16.0198C4.36155 15.9976 3.36771 15.5537 2.63707 14.7832C1.90644 14.0127 1.49722 12.9771 1.49722 11.8985C1.49722 10.8199 1.90644 9.78424 2.63707 9.01376C3.36771 8.24328 4.36155 7.79934 5.40538 7.7772C5.92941 7.77697 6.44834 7.88352 6.93245 8.09075C7.41657 8.29798 7.85637 8.60181 8.22668 8.98487C8.59699 9.36792 8.89054 9.82267 9.09051 10.3231C9.29049 10.8235 9.39297 11.3597 9.39208 11.9011C9.3923 12.4419 9.28939 12.9774 9.08922 13.4771C8.88906 13.9768 8.59556 14.4309 8.22549 14.8133C7.85543 15.1958 7.41605 15.4992 6.93245 15.7062C6.44886 15.9132 5.92884 16.0198 5.40538 16.0198Z" fill="#757575"/>
<path d="M19.8766 10.897C19.8653 10.9952 19.8653 11.0947 19.8766 11.1928C19.9027 11.6759 20.1767 12.0746 20.5289 12.0746C20.7768 12.0746 20.9659 11.9248 21.129 11.7301L21.1926 11.805C20.9871 12.1177 20.7344 12.3779 20.3707 12.3779C19.6663 12.3779 19.5228 11.5916 19.5228 11.2658C19.5228 10.2624 20.1131 9.96657 20.4245 9.96657C20.7816 9.96657 21.1714 10.2287 21.1746 10.7716V10.8615L21.1339 10.8914H19.888L19.8766 10.897ZM20.6659 10.7342C20.7768 10.7342 20.7914 10.6686 20.7914 10.6068C20.7914 10.3485 20.6544 10.1369 20.4033 10.1369C20.1343 10.1369 19.9451 10.3653 19.8929 10.736L20.6659 10.7342ZM21.3915 12.172C21.5187 12.172 21.6035 12.172 21.6035 12.0035V10.5731C21.6035 10.4159 21.4404 10.3859 21.3703 10.3429V10.2642C21.6965 10.107 21.8758 9.97406 21.9133 9.97406C21.9383 9.97156 21.9503 9.99403 21.9492 10.0415V10.5001H21.9606C22.0699 10.2998 22.2607 9.97593 22.5281 9.97593C22.639 9.97593 22.7809 10.0583 22.7809 10.2455C22.7809 10.3859 22.6961 10.5076 22.5705 10.5076C22.4335 10.5076 22.4335 10.3859 22.277 10.3859C22.202 10.3859 21.9508 10.4983 21.9508 10.8072V12.0054C21.9508 12.1738 22.0389 12.1738 22.1661 12.1738H22.4123V12.3049C22.171 12.3049 21.9818 12.2937 21.7927 12.2937C21.6013 12.2924 21.4241 12.2962 21.2611 12.3049V12.1738L21.3915 12.172ZM22.9798 11.5991C23.0369 11.9361 23.2163 12.2206 23.5375 12.2206C23.7984 12.2206 23.8946 12.0391 23.8946 11.8593C23.8946 11.2546 22.926 11.4474 22.926 10.6274C22.926 10.3429 23.1266 9.97406 23.6158 9.97406C23.7576 9.97406 23.9468 10.0227 24.1213 10.1238L24.1523 10.6443H24.0528C24.0104 10.326 23.8522 10.1388 23.5685 10.1388C23.3891 10.1388 23.2212 10.2511 23.2212 10.4758C23.2212 11.0749 24.2517 10.8877 24.2517 11.689C24.2517 12.0278 24.0153 12.3835 23.4902 12.3835C23.2994 12.3785 23.1127 12.3187 22.9472 12.2094L22.8999 11.6234L22.9798 11.5991ZM28.4296 12.172H28.5144C28.6399 12.172 28.7296 12.172 28.7296 12.0035V9.16529C28.7296 8.83204 28.6611 8.82081 28.4932 8.76652V8.68227C28.6499 8.62324 28.8026 8.55064 28.9498 8.4651C28.9987 8.43515 29.0346 8.40894 29.0509 8.40894C29.077 8.40894 29.0867 8.44076 29.0867 8.48382V12.0035C29.0867 12.172 29.1878 12.172 29.3085 12.172H29.3819V12.3049C29.2302 12.3049 29.077 12.2937 28.9139 12.2937C28.753 12.2912 28.5916 12.2949 28.4296 12.3049V12.172ZM31.2816 12.0278C31.2816 12.1177 31.3289 12.1233 31.4072 12.1233H31.5866V12.2319C31.3974 12.2506 31.0289 12.3592 30.9441 12.3891L30.9229 12.3704V11.9604C30.6555 12.2075 30.45 12.3891 30.1353 12.3891C29.8923 12.3891 29.6461 12.2075 29.6461 11.7844V10.4814C29.6461 10.3485 29.6298 10.2193 29.377 10.1968V10.0995C29.5352 10.0995 29.8923 10.0639 29.951 10.0639C29.9983 10.0639 29.9983 10.1014 29.9983 10.2081V11.5261C29.9983 11.6759 29.9983 12.1177 30.3815 12.1177C30.5348 12.1177 30.7337 11.9848 30.9196 11.8088V10.4384C30.9196 10.3354 30.7027 10.2811 30.5446 10.2268V10.1369C30.9441 10.107 31.192 10.0639 31.2392 10.0639C31.2768 10.0639 31.2768 10.1014 31.2768 10.1538V12.039L31.2816 12.0278ZM32.1655 10.3429C32.3449 10.1669 32.5813 9.97406 32.8275 9.97406C33.3428 9.97406 33.6543 10.487 33.6543 11.0431C33.6543 11.7133 33.2271 12.3779 32.5911 12.3779C32.2649 12.3779 32.0921 12.2581 31.9763 12.1963L31.8442 12.3124L31.7497 12.2562C31.7855 11.9567 31.8116 11.659 31.8116 11.352V9.16529C31.8116 8.83204 31.7448 8.82081 31.5752 8.76652V8.68227C31.7325 8.62333 31.8857 8.55073 32.0334 8.4651C32.0807 8.43515 32.1182 8.40894 32.1329 8.40894C32.159 8.40894 32.1704 8.44076 32.1704 8.48382V10.3429H32.1655ZM32.1655 11.732C32.1655 11.9248 32.322 12.2506 32.6221 12.2506C33.095 12.2506 33.2955 11.7133 33.2955 11.2602C33.2955 10.7117 32.9335 10.253 32.5862 10.253C32.4231 10.253 32.2861 10.3728 32.1655 10.4945V11.732ZM25.9362 13.3308V13.3439L25.9036 13.5686C25.8993 13.6435 25.8977 13.7196 25.8987 13.797L25.8156 13.8345V13.8213C25.8091 13.7128 25.7993 13.5611 25.646 13.5611H25.2579V15.0289C25.2628 15.2404 25.3362 15.2535 25.447 15.2592H25.5041V15.3603H25.4943C25.3998 15.3603 25.2318 15.3546 25.0997 15.3546C24.9578 15.3546 24.7899 15.3603 24.6953 15.3603H24.6839V15.2592H24.7377C24.873 15.2517 24.9269 15.2517 24.9269 15.0345V13.5611H24.542C24.3626 13.5667 24.3692 13.6042 24.3268 13.8082L24.2322 13.8157V13.8026C24.242 13.724 24.2583 13.6454 24.2648 13.5667C24.2739 13.4892 24.2788 13.411 24.2795 13.3327V13.3196H24.3528V13.3327C24.374 13.3982 24.4164 13.3982 24.4784 13.3982H24.4898L25.7422 13.4039C25.8042 13.3982 25.8563 13.3982 25.8563 13.3252V13.314H25.8727L25.9411 13.3252L25.9362 13.3308ZM27.7137 13.3683C27.5947 13.366 27.4765 13.3912 27.3662 13.4422C27.2558 13.4933 27.1555 13.5692 27.0711 13.6656C26.9867 13.7619 26.92 13.8767 26.875 14.0031C26.8299 14.1296 26.8073 14.2651 26.8087 14.4017C26.8087 14.9821 27.2082 15.4089 27.7235 15.4089C28.2388 15.4089 28.6497 14.9802 28.6497 14.3343C28.6497 13.7352 28.2339 13.3683 27.7137 13.3683ZM27.7496 15.2648C27.3664 15.2648 27.1707 14.7986 27.1707 14.3044C27.1707 13.9355 27.293 13.5124 27.7088 13.5124C28.123 13.5124 28.2926 13.9955 28.2926 14.3942C28.2861 14.7986 28.2078 15.2648 27.7496 15.2648ZM33.7472 13.3439C33.894 13.3439 34 13.4713 34 13.6397C34 13.8082 33.8891 13.9299 33.7472 13.9299C33.7139 13.9304 33.6809 13.9233 33.65 13.9089C33.6191 13.8945 33.5911 13.8731 33.5675 13.8461C33.544 13.819 33.5254 13.7868 33.5128 13.7514C33.5003 13.716 33.494 13.678 33.4945 13.6397C33.4945 13.4769 33.6054 13.3439 33.7472 13.3439ZM33.7472 13.8756C33.7739 13.8754 33.8003 13.8691 33.8249 13.8571C33.8494 13.8451 33.8717 13.8276 33.8903 13.8057C33.909 13.7837 33.9237 13.7578 33.9335 13.7293C33.9434 13.7008 33.9482 13.6704 33.9478 13.6397C33.9478 13.5143 33.863 13.3982 33.7472 13.3982C33.6331 13.3982 33.5483 13.5143 33.5483 13.6416C33.5483 13.7671 33.6364 13.8756 33.7472 13.8756ZM33.6217 13.7914V13.7783C33.6543 13.7783 33.6576 13.7783 33.6576 13.7558V13.5368C33.6576 13.5068 33.6576 13.4956 33.6217 13.4956V13.4844H33.7521C33.8011 13.4844 33.8369 13.5068 33.8369 13.5611C33.8374 13.5814 33.8321 13.6014 33.8218 13.618C33.8115 13.6345 33.7968 13.6468 33.7799 13.6529L33.8206 13.7184C33.8348 13.7463 33.855 13.7695 33.8793 13.7858V13.797H33.8304L33.7423 13.666H33.7163V13.7596C33.7163 13.7596 33.7212 13.7783 33.7521 13.7858V13.797H33.6315L33.6217 13.7914ZM33.7048 13.6341H33.7375C33.7701 13.6341 33.7847 13.6042 33.7847 13.5611C33.7847 13.5199 33.7587 13.5012 33.7358 13.5012H33.7114V13.6397L33.7048 13.6341ZM19.5391 12.172V12.3049L19.0662 12.2993C18.9064 12.2993 18.7465 12.3012 18.5867 12.3049V12.1738H18.6666C18.7922 12.1738 18.8819 12.1738 18.8819 12.0054V10.6874C18.8819 10.3916 18.7237 10.253 18.471 10.253C18.3291 10.253 18.1041 10.3841 17.9557 10.4945V12.0035C17.9557 12.172 18.0502 12.172 18.1774 12.172H18.2557V12.3049L17.7877 12.2993C17.6279 12.2993 17.4686 12.3012 17.3099 12.3049V12.1738H17.3882C17.5089 12.1738 17.5985 12.1738 17.5985 12.0054V10.6574C17.5985 10.4627 17.5496 10.414 17.3409 10.3204V10.2212C17.5366 10.15 17.7143 10.0826 17.9296 9.97406C17.941 9.97406 17.9557 9.98716 17.9557 10.0302V10.3616C18.2084 10.15 18.4237 9.97406 18.7237 9.97406C19.102 9.97406 19.2341 10.2942 19.2341 10.6855V12.0035C19.2341 12.172 19.3352 12.172 19.4559 12.172H19.5391ZM14.2948 8.7478C13.9621 8.7478 13.711 8.75341 13.5202 8.75341C13.3473 8.75341 13.1739 8.75154 13 8.7478V8.87885C13.2006 8.87885 13.4044 8.85076 13.4044 9.30944V11.7844C13.3946 12.1364 13.2625 12.1401 13 12.172V12.3049L13.5952 12.2993C13.8056 12.2993 14.0094 12.3049 14.2361 12.3049C15.8146 12.3049 16.0722 11.0356 16.0722 10.5301C16.0722 9.62958 15.4411 8.7478 14.2948 8.7478ZM14.3046 12.142C14.0893 12.142 13.8414 12.099 13.8414 11.7077V8.9294C13.9262 8.92191 14.0045 8.91067 14.1888 8.91067C15.0465 8.91067 15.583 9.59963 15.583 10.5544C15.583 11.3145 15.2667 12.142 14.3046 12.142ZM17.0995 12.172H17.1778V12.3049L16.7098 12.2993L16.2255 12.3049V12.1738H16.3103C16.4375 12.1738 16.5255 12.1738 16.5255 12.0091V10.6274C16.5255 10.3972 16.4571 10.3653 16.294 10.2642V10.1856C16.4995 10.1126 16.7522 10.0171 16.7669 10.004C16.7913 9.98587 16.8194 9.97553 16.8484 9.97406C16.8729 9.97406 16.8778 10.004 16.8778 10.0471V12.0091C16.8778 12.172 16.9789 12.172 17.0995 12.172ZM16.4832 8.93501C16.4863 8.87063 16.51 8.80984 16.5497 8.76425C16.5894 8.71866 16.6423 8.69147 16.6984 8.68789C16.8093 8.68789 16.9202 8.79647 16.9202 8.93501C16.9202 9.00254 16.8968 9.0673 16.8552 9.11505C16.8136 9.1628 16.7572 9.18963 16.6984 9.18963C16.6407 9.18768 16.586 9.15999 16.5458 9.11245C16.5056 9.06491 16.4831 9.00126 16.4832 8.93501Z" fill="#757575"/>
<path d="M19.8876 10.897C19.8762 10.9952 19.8762 11.0947 19.8876 11.1928C19.9136 11.6759 20.1874 12.0746 20.5393 12.0746C20.787 12.0746 20.976 11.9248 21.139 11.7301L21.2025 11.805C20.9972 12.1177 20.7446 12.3779 20.3813 12.3779C19.6774 12.3779 19.534 11.5916 19.534 11.2658C19.534 10.2624 20.1238 9.96657 20.4351 9.96657C20.7919 9.96657 21.1813 10.2287 21.1846 10.7716V10.8615L21.1439 10.8914H19.899L19.8876 10.897ZM20.6762 10.7342C20.787 10.7342 20.8017 10.6686 20.8017 10.6068C20.8017 10.3485 20.6648 10.1369 20.4139 10.1369C20.145 10.1369 19.956 10.3653 19.9039 10.736L20.6762 10.7342ZM21.4013 12.172C21.5284 12.172 21.6131 12.172 21.6131 12.0035V10.5731C21.6131 10.4159 21.4502 10.3859 21.3801 10.3429V10.2642C21.706 10.107 21.8852 9.97406 21.9227 9.97406C21.9477 9.97156 21.9597 9.99403 21.9586 10.0415V10.5001H21.97C22.0791 10.2998 22.2698 9.97593 22.537 9.97593C22.6478 9.97593 22.7896 10.0583 22.7896 10.2455C22.7896 10.3859 22.7048 10.5076 22.5794 10.5076C22.4425 10.5076 22.4425 10.3859 22.2861 10.3859C22.2111 10.3859 21.9602 10.4983 21.9602 10.8072V12.0054C21.9602 12.1738 22.0482 12.1738 22.1753 12.1738H22.4213V12.3049C22.1802 12.3049 21.9912 12.2937 21.8021 12.2937C21.611 12.2924 21.4339 12.2962 21.2709 12.3049V12.1738L21.4013 12.172ZM22.9884 11.5991C23.0454 11.9361 23.2246 12.2206 23.5456 12.2206C23.8063 12.2206 23.9025 12.0391 23.9025 11.8593C23.9025 11.2546 22.9346 11.4474 22.9346 10.6274C22.9346 10.3429 23.135 9.97406 23.6238 9.97406C23.7656 9.97406 23.9546 10.0227 24.129 10.1238L24.1599 10.6443H24.0605C24.0182 10.326 23.8601 10.1388 23.5766 10.1388C23.3973 10.1388 23.2295 10.2511 23.2295 10.4758C23.2295 11.0749 24.2593 10.8877 24.2593 11.689C24.2593 12.0278 24.023 12.3835 23.4984 12.3835C23.3077 12.3785 23.1211 12.3187 22.9558 12.2094L22.9085 11.6234L22.9884 11.5991ZM28.2758 11.3688L28.1781 12.1121C27.9874 12.245 27.4888 12.3835 27.1939 12.3835C26.1527 12.3835 25.496 11.6103 25.496 10.4627C25.496 9.41803 26.3108 8.66917 27.1841 8.66917C27.541 8.66917 27.888 8.80209 28.2286 8.9425L28.2709 9.66703H28.1601C28.077 9.07542 27.7088 8.83391 27.2102 8.83391C26.71 8.83391 25.9588 9.22707 25.9588 10.4515C25.9588 11.4774 26.5992 12.2206 27.2835 12.2206C27.4991 12.2201 27.7075 12.1311 27.8712 11.9699C28.0349 11.8086 28.1431 11.5855 28.1764 11.3407L28.2758 11.3688ZM28.4339 12.172H28.5186C28.6441 12.172 28.7337 12.172 28.7337 12.0035V9.16529C28.7337 8.83204 28.6653 8.82081 28.4974 8.76652V8.68227C28.6541 8.62324 28.8066 8.55064 28.9537 8.4651C29.0026 8.43515 29.0384 8.40894 29.0547 8.40894C29.0808 8.40894 29.0905 8.44076 29.0905 8.48382V12.0035C29.0905 12.172 29.1916 12.172 29.3121 12.172H29.3855V12.3049C29.2339 12.3049 29.0808 12.2937 28.9178 12.2937C28.7571 12.2912 28.5957 12.2949 28.4339 12.3049V12.172ZM31.2838 12.0278C31.2838 12.1177 31.331 12.1233 31.4092 12.1233H31.5885V12.2319C31.3994 12.2506 31.0312 12.3592 30.9465 12.3891L30.9253 12.3704V11.9604C30.6581 12.2075 30.4527 12.3891 30.1383 12.3891C29.8955 12.3891 29.6494 12.2075 29.6494 11.7844V10.4814C29.6494 10.3485 29.6331 10.2193 29.3806 10.1968V10.0995C29.5386 10.0995 29.8955 10.0639 29.9541 10.0639C30.0014 10.0639 30.0014 10.1014 30.0014 10.2081V11.5261C30.0014 11.6759 30.0014 12.1177 30.3843 12.1177C30.5375 12.1177 30.7363 11.9848 30.922 11.8088V10.4384C30.922 10.3354 30.7053 10.2811 30.5473 10.2268V10.1369C30.9465 10.107 31.1941 10.0639 31.2414 10.0639C31.2789 10.0639 31.2789 10.1014 31.2789 10.1538V12.039L31.2838 12.0278ZM32.1669 10.3429C32.3461 10.1669 32.5824 9.97406 32.8284 9.97406C33.3433 9.97406 33.6546 10.487 33.6546 11.0431C33.6546 11.7133 33.2277 12.3779 32.5922 12.3779C32.2663 12.3779 32.0936 12.2581 31.9779 12.1963L31.8459 12.3124L31.7514 12.2562C31.7872 11.9567 31.8133 11.659 31.8133 11.352V9.16529C31.8133 8.83204 31.7465 8.82081 31.577 8.76652V8.68227C31.7342 8.62333 31.8873 8.55073 32.0349 8.4651C32.0822 8.43515 32.1196 8.40894 32.1343 8.40894C32.1604 8.40894 32.1718 8.44076 32.1718 8.48382V10.3429H32.1669ZM32.1669 11.732C32.1669 11.9248 32.3233 12.2506 32.6231 12.2506C33.0957 12.2506 33.2961 11.7133 33.2961 11.2602C33.2961 10.7117 32.9344 10.253 32.5873 10.253C32.4243 10.253 32.2875 10.3728 32.1669 10.4945V11.732ZM17.4744 13.3196L17.5428 13.3327V13.3439C17.5309 13.4213 17.5222 13.4962 17.5168 13.5686C17.5113 13.6435 17.5092 13.7196 17.5102 13.797H17.5054L17.4157 13.8345V13.8213C17.4108 13.7128 17.3994 13.5611 17.2479 13.5611H16.865V15.0289C16.865 15.2404 16.9383 15.2535 17.054 15.2592H17.1061V15.3603H17.1013L16.7069 15.3546C16.5603 15.3546 16.3908 15.3603 16.2963 15.3603H16.2865V15.2592H16.3436C16.4756 15.2517 16.5277 15.2517 16.5342 15.0345V13.5611H16.1432C15.9655 13.5667 15.9704 13.6042 15.9346 13.8082H15.9281L15.8401 13.8157V13.8026C15.8509 13.724 15.8596 13.6454 15.8662 13.5667C15.8758 13.4892 15.8813 13.411 15.8824 13.3327V13.3196H15.9607V13.3327C15.977 13.3982 16.0242 13.3982 16.0812 13.3982H17.3424C17.4108 13.3982 17.4581 13.3982 17.4646 13.3252V13.314H17.4744V13.3196ZM13.7479 13.4113H13.7593V13.5124H13.7104C13.6599 13.5199 13.6061 13.5199 13.5752 13.5555C13.554 13.5798 13.5426 13.6098 13.5426 13.6641V15.1131C13.5426 15.2517 13.6273 15.2592 13.7121 15.2629H13.7593V15.3677H13.7463L13.3634 15.3621C13.2428 15.3621 13.1059 15.3677 13.0114 15.3677H13V15.2648H13.0424C13.132 15.2592 13.2102 15.2517 13.2102 15.115V13.6641C13.2102 13.6098 13.2004 13.5798 13.1776 13.5555C13.1483 13.5181 13.101 13.5181 13.0424 13.5124H13V13.4113H13.0114C13.1059 13.4113 13.2477 13.417 13.3699 13.417L13.7479 13.4113ZM18.9979 14.9091V14.9203C18.9625 15.0655 18.9347 15.2131 18.9148 15.3621H18.9083V15.3677C18.7519 15.3677 18.4732 15.3546 18.2565 15.3546C18.0414 15.3546 17.7514 15.3677 17.6162 15.3677H17.6047V15.2648H17.6471C17.7367 15.2592 17.8149 15.2517 17.8149 15.115V13.6641C17.8149 13.6098 17.8052 13.5798 17.784 13.5555C17.7514 13.5181 17.7058 13.5181 17.6471 13.5124H17.6047V13.4113H17.6162C17.7628 13.4113 18.0154 13.417 18.2158 13.417L18.835 13.4113H18.8464V13.5611C18.8464 13.6585 18.8464 13.7671 18.8561 13.8457L18.8464 13.8569L18.7616 13.8813V13.87C18.7453 13.6884 18.7258 13.5555 18.4781 13.5555H18.1522V14.2557H18.4292C18.5677 14.2557 18.5922 14.1714 18.6085 14.0273V14.0142H18.7046V14.0273C18.6981 14.1357 18.6943 14.2443 18.6932 14.353C18.6932 14.4554 18.697 14.5602 18.7046 14.6676V14.6788H18.6932L18.6101 14.6975V14.6844C18.5938 14.5159 18.5938 14.4186 18.4309 14.4186H18.1522V15.0532C18.1522 15.2217 18.2777 15.2217 18.4358 15.2217C18.7258 15.2217 18.8464 15.203 18.9148 14.896V14.8847H18.9311L19.0093 14.9072L18.9979 14.9091ZM15.7879 13.4113H15.7977V13.5124H15.7505C15.6527 13.5199 15.5468 13.5255 15.5468 13.8569V15.1188C15.5446 15.2186 15.5479 15.3116 15.5566 15.3977V15.4089H15.4523L14.2221 13.8401V14.9503C14.227 15.1936 14.2579 15.2592 14.442 15.2648H14.4909V15.3677H14.4795L14.1699 15.3621L13.844 15.3677H13.8277V15.2648H13.875C14.0331 15.2592 14.0803 15.1431 14.0803 14.9203V13.7539C14.081 13.7225 14.0761 13.6912 14.0661 13.6619C14.0561 13.6327 14.0411 13.606 14.0219 13.5835C14.0028 13.561 13.9799 13.5431 13.9547 13.5309C13.9295 13.5187 13.9024 13.5124 13.875 13.5124H13.8261V13.4113H13.8424L14.1162 13.417C14.1895 13.417 14.2579 13.4113 14.3426 13.4113L15.405 14.7874V13.7671C15.405 13.5424 15.273 13.5199 15.2046 13.5124H15.1411V13.4113H15.1525L15.4881 13.417L15.7879 13.4113ZM20.7446 15.2648C20.6306 15.2461 20.5866 15.2161 20.5182 15.1019L20.1141 14.4017C20.2982 14.3156 20.4448 14.1583 20.4448 13.9056C20.4448 13.6529 20.334 13.5255 20.1776 13.4656H20.1711C20.0705 13.4233 19.9636 13.4043 19.8566 13.4095C19.7295 13.4095 19.6138 13.417 19.4672 13.417C19.3205 13.417 19.1739 13.4113 19.094 13.4113H19.0843V13.5124H19.1364C19.2146 13.5199 19.2993 13.5199 19.2993 13.7128V15.1262C19.2993 15.2161 19.226 15.2648 19.1364 15.2648H19.0843V15.3677H19.094L19.446 15.3621L19.8615 15.3677H19.8729V15.2648H19.8191C19.7051 15.2592 19.6301 15.2592 19.6301 15.0532V14.4729H19.7719C19.9299 14.7874 20.088 15.0832 20.2721 15.3677L20.5084 15.3621L20.7446 15.3677H20.7544V15.2648H20.7446ZM19.7344 14.3474H19.6301V13.5424C19.6627 13.5424 19.6937 13.5312 19.7572 13.5312C19.9674 13.5312 20.0994 13.6809 20.0994 13.9243C20.0994 14.2501 19.9772 14.3474 19.736 14.3474M22.7733 13.4113V13.5124H22.7244C22.625 13.5199 22.5256 13.5312 22.5191 13.8569V15.1188C22.5191 15.2186 22.5245 15.3116 22.5354 15.3977V15.4089H22.4246L21.2009 13.8401V14.9503C21.2009 15.1936 21.2335 15.2592 21.416 15.2648H21.4681V15.3677H21.4583L21.1422 15.3621L20.8163 15.3677H20.8066V15.2648H20.8489C21.0119 15.2648 21.0542 15.1431 21.0591 14.9203V13.7539C21.0596 13.7219 21.0544 13.6901 21.0439 13.6605C21.0334 13.6308 21.0178 13.6039 20.998 13.5814C20.9782 13.5588 20.9547 13.5411 20.9288 13.5292C20.9029 13.5174 20.8752 13.5117 20.8473 13.5124H20.8066V13.4113H20.8163L21.095 13.417L21.3166 13.4113L22.3773 14.7874V13.7671C22.3773 13.5424 22.247 13.5199 22.1785 13.5124H22.115V13.4113H22.1264L22.4621 13.417L22.7619 13.4113H22.7733ZM24.4223 15.2648C24.344 15.2648 24.3017 15.233 24.2707 15.1543C24.2398 15.0757 24.2121 14.9746 24.186 14.8772L23.7395 13.4226L23.7183 13.3552C23.7086 13.3365 23.6972 13.3365 23.6923 13.3365L23.6662 13.3439C23.5963 13.3929 23.522 13.4331 23.4446 13.4638C23.4283 13.5723 23.3811 13.7128 23.3501 13.8139L22.9672 15.0888C22.9297 15.203 22.8564 15.2648 22.7668 15.2648H22.7407V15.3734H22.7505C22.8374 15.3659 22.9232 15.3615 23.0079 15.3603L23.3028 15.3659H23.3126V15.2648H23.2768C23.1969 15.2648 23.1089 15.2461 23.1024 15.1787C23.1024 15.1319 23.135 15.0588 23.1611 14.9615L23.2344 14.6844H23.7656L23.8601 14.9989C23.8818 15.0611 23.8977 15.1257 23.9074 15.1918C23.9074 15.2461 23.8226 15.2648 23.7656 15.2648H23.7281V15.3734H23.7395C23.8655 15.3659 23.9861 15.3615 24.1013 15.3603L24.4385 15.3659H24.4483V15.2648H24.4223ZM23.2865 14.5028L23.4984 13.7596L23.7086 14.5028H23.2865ZM26.5519 13.6641V15.1131C26.5519 15.2517 26.6301 15.2592 26.7197 15.2629H26.7621V15.3677H26.7572C26.6366 15.3677 26.4932 15.3546 26.3727 15.3546C26.2521 15.3546 26.1103 15.3677 26.0142 15.3677H26.0044V15.2648H26.0533C26.1364 15.2592 26.2211 15.2517 26.2211 15.115V13.6641C26.2211 13.6098 26.2097 13.5798 26.1885 13.5555C26.1576 13.5181 26.1054 13.5181 26.0517 13.5124H26.0044V13.4113H26.0158L26.3743 13.417L26.7572 13.4113H26.7621V13.5124H26.7197C26.6627 13.5199 26.6155 13.5199 26.5829 13.5555C26.5617 13.5798 26.5519 13.6098 26.5519 13.6641ZM30.6629 13.4113V13.5124H30.6141C30.5163 13.5199 30.4104 13.5312 30.4104 13.8569V15.1188C30.4082 15.2186 30.4115 15.3116 30.4202 15.3977V15.4089H30.3159L29.0857 13.8401V14.9503C29.0857 15.1936 29.1231 15.2592 29.3073 15.2648H29.3545V15.3677H29.3431L29.0335 15.3621L28.7076 15.3677H28.6979V15.2648H28.7386C28.8966 15.2592 28.9439 15.1431 28.9439 14.9203V13.7539C28.9446 13.7225 28.9397 13.6912 28.9297 13.6619C28.9197 13.6327 28.9047 13.606 28.8855 13.5835C28.8664 13.561 28.8435 13.5431 28.8183 13.5309C28.7931 13.5187 28.766 13.5124 28.7386 13.5124H28.6962V13.4113H28.7076L28.9814 13.417C29.0547 13.417 29.1231 13.4113 29.2062 13.4113L30.2686 14.7874V13.7671C30.2686 13.5424 30.1383 13.5199 30.0682 13.5124H30.0063V13.4113H30.0161L30.3533 13.417L30.6515 13.4113H30.6629ZM32.3135 15.2648C32.2337 15.2573 32.1913 15.233 32.1604 15.1543C32.1294 15.0757 32.1034 14.9746 32.0708 14.8772L31.6308 13.4226C31.6308 13.4226 31.6145 13.3739 31.6031 13.3552C31.5982 13.3365 31.5868 13.3365 31.577 13.3365L31.5559 13.3439C31.4865 13.3928 31.4127 13.433 31.3359 13.4638C31.3094 13.5822 31.2778 13.699 31.2414 13.8139L30.8503 15.0888C30.8388 15.1393 30.813 15.1839 30.7771 15.2157C30.7411 15.2476 30.6969 15.2648 30.6515 15.2648H30.632V15.3659H30.6418L30.8992 15.3603L31.1925 15.3659H31.2039V15.2648H31.1681C31.0833 15.2648 30.9937 15.2461 30.9937 15.173C30.9937 15.1319 31.0263 15.0588 31.0459 14.9615L31.1208 14.6844H31.6553L31.7449 14.9989C31.7775 15.0832 31.7987 15.1618 31.7987 15.1918C31.7987 15.2461 31.7139 15.2648 31.6553 15.2648H31.6194V15.3659H31.6292L31.9925 15.3603L32.3233 15.3659H32.3347V15.2648H32.3135ZM31.1778 14.5028L31.388 13.7596L31.5982 14.5028H31.1778ZM33.7849 14.8716V14.8903C33.7576 15.0482 33.7277 15.2055 33.6953 15.3621L33.6855 15.3677L33.05 15.3621L32.4081 15.3677H32.3966V15.2648H32.4455C32.527 15.2592 32.6117 15.2517 32.6117 15.0888V13.6585C32.6117 13.5255 32.5286 13.5199 32.4439 13.5124H32.3966V13.4113H32.4081L32.791 13.417C32.9181 13.417 33.0338 13.4113 33.1592 13.4113H33.169V13.5124H33.0957C33.0012 13.5199 32.9441 13.5124 32.9441 13.6529V15.0832C32.9441 15.1861 33.0012 15.2161 33.081 15.2292C33.1212 15.2342 33.1646 15.2361 33.2114 15.2348C33.27 15.2348 33.3314 15.2305 33.3955 15.2217C33.4398 15.2167 33.4828 15.2014 33.5217 15.1766C33.5607 15.1518 33.5948 15.1181 33.622 15.0776C33.6542 15.0176 33.6789 14.9527 33.6953 14.8847V14.8716H33.7849ZM33.7474 13.3439C33.8941 13.3439 34 13.4713 34 13.6397C34 13.8082 33.8892 13.9299 33.7474 13.9299C33.7141 13.9304 33.6811 13.9233 33.6503 13.9089C33.6194 13.8945 33.5914 13.8731 33.5679 13.8461C33.5443 13.819 33.5257 13.7868 33.5132 13.7514C33.5007 13.716 33.4944 13.678 33.4949 13.6397C33.4949 13.4769 33.6057 13.3439 33.7474 13.3439ZM33.7474 13.8756C33.7741 13.8754 33.8005 13.8691 33.825 13.8571C33.8496 13.8451 33.8718 13.8276 33.8904 13.8057C33.909 13.7837 33.9237 13.7578 33.9336 13.7293C33.9434 13.7008 33.9483 13.6704 33.9479 13.6397C33.9479 13.5143 33.8631 13.3982 33.7474 13.3982C33.6334 13.3982 33.5486 13.5143 33.5486 13.6416C33.5486 13.7671 33.6366 13.8756 33.7474 13.8756ZM33.622 13.7914V13.7783C33.6546 13.7783 33.6578 13.7783 33.6578 13.7558V13.5368C33.6578 13.5068 33.6578 13.4956 33.622 13.4956V13.4844H33.7523C33.8012 13.4844 33.8371 13.5068 33.8371 13.5611C33.8375 13.5814 33.8322 13.6014 33.8219 13.618C33.8116 13.6345 33.7969 13.6468 33.78 13.6529L33.8208 13.7184C33.8349 13.7463 33.8551 13.7695 33.8794 13.7858V13.797H33.8305L33.7425 13.666H33.7165V13.7596C33.7165 13.7596 33.7214 13.7783 33.7523 13.7858V13.797H33.6318L33.622 13.7914ZM33.7051 13.6341H33.7377C33.7703 13.6341 33.7849 13.6042 33.7849 13.5611C33.7849 13.5199 33.7588 13.5012 33.736 13.5012H33.7116V13.6397L33.7051 13.6341Z" fill="#757575"/>
<path fill-rule="evenodd" clip-rule="evenodd" d="M8 11.9089C8 13.0476 7.17012 14.0187 6 14.4089V9.40894C6.58905 9.6025 7.09573 9.94521 7.45289 10.3917C7.81006 10.8381 8.00085 11.3672 8 11.9089Z" fill="#757575"/>
<path fill-rule="evenodd" clip-rule="evenodd" d="M7.4419 7.41067H5.38991C3.05703 7.41067 1.1211 9.15125 1 11.6961V12.1773C1.1211 14.5259 3.05703 16.4193 5.38991 16.4089H7.4419C9.82355 16.4193 12 14.4025 12 11.948C12 9.26417 9.82355 7.41067 7.4419 7.41067ZM5.40168 16.0198C4.35754 15.9976 3.36339 15.5537 2.63253 14.7832C1.90167 14.0127 1.49233 12.9771 1.49233 11.8985C1.49233 10.8199 1.90167 9.78424 2.63253 9.01376C3.36339 8.24328 4.35754 7.79934 5.40168 7.7772C5.92573 7.7772 6.44463 7.88392 6.9287 8.09125C7.41278 8.29858 7.85252 8.60245 8.22276 8.98548C8.593 9.36851 8.88649 9.82318 9.08642 10.3235C9.28635 10.8238 9.3888 11.3599 9.38792 11.9011C9.38814 12.4419 9.2852 12.9774 9.08497 13.4771C8.88474 13.9768 8.59115 14.4309 8.22097 14.8133C7.85079 15.1958 7.41128 15.4992 6.92754 15.7062C6.4438 15.9132 5.9253 16.0198 5.40168 16.0198Z" fill="#757575"/>
<path fill-rule="evenodd" clip-rule="evenodd" d="M4 9.40894V14.4089C3.70588 14.2157 3.45277 13.8732 3.27419 13.4268C3.09562 12.9804 3 12.451 3 11.9089C3 11.3668 3.09562 10.8375 3.27419 10.3911C3.45277 9.94464 3.70588 9.60214 4 9.40894Z" fill="#757575"/>
</g>
<defs>
<clipPath id="clip0_60_57">
<rect width="33" height="24" fill="white" transform="translate(0.5)"/>
</clipPath>
</defs>
</svg>
