<svg width="25" height="24" viewBox="0 0 25 24" fill="none" xmlns="http://www.w3.org/2000/svg">
<path d="M15.95 16.52L12.94 13.51C12.83 13.4 12.7 13.38 12.63 13.38C12.56 13.38 12.43 13.4 12.32 13.51L9.3 16.53C8.96 16.87 8.43 17.42 6.66 17.42L10.37 21.12C10.9325 21.6818 11.695 21.9974 12.49 21.9974C13.285 21.9974 14.0475 21.6818 14.61 21.12L18.33 17.41C17.42 17.41 16.66 17.23 15.95 16.52ZM9.3 7.47005L12.32 10.49C12.4 10.57 12.52 10.62 12.63 10.62C12.74 10.62 12.86 10.57 12.94 10.49L15.93 7.50005C16.64 6.76005 17.45 6.59005 18.36 6.59005L14.64 2.88005C14.0775 2.31824 13.315 2.00269 12.52 2.00269C11.725 2.00269 10.9625 2.31824 10.4 2.88005L6.69 6.58005C8.45 6.58005 8.99 7.16005 9.3 7.47005Z" fill="#757575"/>
<path d="M21.61 9.85007L19.36 7.59007H18.1C17.56 7.59007 17.02 7.81007 16.65 8.20007L13.65 11.2001C13.37 11.4801 13 11.6201 12.63 11.6201C12.249 11.6147 11.8843 11.4645 11.61 11.2001L8.59 8.17007C8.21 7.79007 7.69 7.57007 7.14 7.57007H5.67L3.38 9.87007C2.8182 10.4326 2.50264 11.1951 2.50264 11.9901C2.50264 12.7851 2.8182 13.5476 3.38 14.1101L5.67 16.4101H7.15C7.69 16.4101 8.21 16.1901 8.6 15.8101L11.62 12.7901C11.9 12.5101 12.27 12.3701 12.64 12.3701C13.01 12.3701 13.38 12.5101 13.66 12.7901L16.67 15.8001C17.05 16.1801 17.57 16.4001 18.12 16.4001H19.38L21.63 14.1401C22.1947 13.5677 22.5096 12.7949 22.5058 11.9909C22.5021 11.1869 22.18 10.4172 21.61 9.85007Z" fill="#757575"/>
</svg>
